<svg width="404" height="187" viewBox="0 0 404 187" fill="none" xmlns="http://www.w3.org/2000/svg">
<path d="M227.085 71.135H194.204V91.1643H222.437V105.588H194.204V140.041H178.003V56.7112H227.085V71.135ZM249.165 69.4944C243.901 69.4944 239.526 65.051 239.526 59.8557C239.526 54.387 243.901 50.1487 249.165 50.1487C254.497 50.1487 259.009 54.387 259.009 59.8557C259.009 65.051 254.497 69.4944 249.165 69.4944ZM240.825 140.041V81.3206H257.642V140.041H240.825ZM276.782 140.041V81.3206H293.53V88.5667C297.837 83.0296 303.853 80.1585 310.757 80.1585C312.466 80.1585 314.175 80.3635 315.542 80.7053V95.4026C313.901 95.3342 312.056 95.1975 310.278 95.1975C300.708 95.1975 293.53 101.008 293.53 113.039V140.041H276.782ZM358.608 80.1585C370.161 80.1585 379.868 89.9338 379.868 102.854V140.041H363.12V105.315C363.12 99.5725 358.813 95.1975 353.003 95.1975C347.124 95.1975 342.476 99.5725 342.476 105.315V140.041H325.728V81.3206H342.476V87.8831C346.577 83.0979 352.251 80.1585 358.608 80.1585Z" fill="#0B3954"/>
<circle cx="68.416" cy="95.8627" r="59.3386" stroke="#0B3954" stroke-width="16.5698"/>
<path fill-rule="evenodd" clip-rule="evenodd" d="M91.3643 125.631C91.6042 125.446 91.442 125.067 91.141 125.103C89.8736 125.254 88.592 125.362 87.2976 125.426C61.8139 126.674 39.5636 110.204 32.4894 86.8436C32.4014 86.553 31.9884 86.5551 31.9157 86.8499C31.0619 90.3131 30.6905 93.9572 30.874 97.7026C31.8896 118.435 49.5198 134.419 70.2522 133.403C78.2237 133.013 85.4932 130.166 91.3643 125.631Z" fill="#0B3954"/>
</svg>
