<svg width="593" height="188" viewBox="0 0 593 188" fill="none" xmlns="http://www.w3.org/2000/svg">
<path d="M194.204 125.481H222.573V140.041H178.003V56.7112H194.204V125.481ZM258.804 141.203C241.919 141.203 232.28 132.658 232.28 118.03V81.3206H249.165V116.389C249.165 123.225 253.198 126.096 258.804 126.096C264.341 126.096 268.442 123.225 268.442 116.389V81.3206H285.259V118.03C285.259 132.658 275.62 141.203 258.804 141.203ZM302.895 140.041V81.3206H319.644V88.0198C323.403 83.2346 328.667 80.1585 335.093 80.1585C342.339 80.1585 348.218 84.1233 351.636 90.0706C355.464 83.8499 361.821 80.1585 369.956 80.1585C382.671 80.1585 390.464 89.4553 390.464 102.854V140.041H373.647V105.246C373.647 99.7776 369.819 95.1975 364.282 95.1975C358.335 95.1975 355.054 100.393 355.054 105.246V140.041H338.306V105.246C338.306 99.7776 334.477 95.1975 328.872 95.1975C322.925 95.1975 319.644 100.393 319.644 105.246V140.041H302.895ZM466.206 110.442L466.138 113.381H419.858C420.679 122.405 425.942 128.215 435.034 128.215C441.87 128.215 446.86 124.934 448.843 119.67H465.181C462.173 132.385 451.03 141.203 435.239 141.203C416.167 141.203 402.974 128.625 402.974 110.715C402.974 92.5999 416.304 80.0217 434.829 80.0217C453.286 80.0217 466.069 92.3948 466.206 110.442ZM435.034 93.4202C427.993 93.4202 423.276 96.9749 421.089 102.649H448.296C446.177 96.9065 441.802 93.4202 435.034 93.4202ZM480.083 140.041V37.844H496.899V140.041H480.083ZM579.751 126.233H582.554V140.041C580.024 140.862 577.632 141.203 575.444 141.203C568.54 141.203 563.071 137.717 560.132 131.701C555.347 137.512 548.374 141.203 539.966 141.203C523.628 141.203 510.708 127.737 510.708 110.715C510.708 93.6253 523.628 80.1585 539.966 80.1585C547.007 80.1585 553.091 82.6878 557.671 86.926V81.3206H574.419V120.217C574.419 125.207 577.085 126.233 579.751 126.233ZM542.905 126.096C551.45 126.096 558.354 119.328 558.354 110.715C558.354 102.033 551.45 95.1975 542.905 95.1975C534.292 95.1975 527.456 102.033 527.456 110.715C527.456 119.328 534.292 126.096 542.905 126.096Z" fill="#0B3954"/>
<circle cx="68.4162" cy="95.8627" r="59.3386" stroke="#0B3954" stroke-width="16.5698"/>
<path fill-rule="evenodd" clip-rule="evenodd" d="M91.3639 125.631C91.6038 125.445 91.4416 125.067 91.1406 125.103C89.8729 125.254 88.591 125.362 87.2964 125.426C61.8131 126.674 39.5632 110.205 32.4885 86.8447C32.4005 86.5541 31.9875 86.5563 31.9149 86.851C31.0612 90.3139 30.69 93.9576 30.8735 97.7025C31.889 118.435 49.5192 134.419 70.2516 133.403C78.2232 133.013 85.4928 130.166 91.3639 125.631Z" fill="#0B3954"/>
</svg>
