<svg width="122" height="122" viewBox="0 0 122 122" fill="none" xmlns="http://www.w3.org/2000/svg">
<path fill-rule="evenodd" clip-rule="evenodd" d="M60.9993 109.246C87.6446 109.246 109.245 87.6453 109.245 61C109.245 34.3547 87.6446 12.7544 60.9993 12.7544C34.354 12.7544 12.7537 34.3547 12.7537 61C12.7537 87.6453 34.354 109.246 60.9993 109.246ZM60.9993 121.061C94.1699 121.061 121.06 94.1707 121.06 61C121.06 27.8293 94.1699 0.939209 60.9993 0.939209C27.8286 0.939209 0.938477 27.8293 0.938477 61C0.938477 94.1707 27.8286 121.061 60.9993 121.061Z" fill="#9A9090"/>
<path fill-rule="evenodd" clip-rule="evenodd" d="M82.1158 96.705C80.3899 96.8843 78.638 96.9761 76.8647 96.9761C49.1211 96.9761 26.6305 74.4855 26.6305 46.742C26.6305 44.164 26.8247 41.6314 27.1992 39.158C23.87 45.1443 21.9736 52.037 21.9736 59.3726C21.9736 82.3761 40.6216 101.024 63.6251 101.024C70.2664 101.024 76.5446 99.4697 82.1158 96.705Z" fill="#9A9090"/>
</svg>
